# Blender v2.79 (sub 0) OBJ File: ''
# www.blender.org
mtllib a02.mtl
o Icosphere
v -0.068798 -1.091743 0.070324
v 0.812243 -0.425981 0.410313
v -0.347414 -0.375719 0.933137
v -0.921172 -0.535286 0.145950
v -0.315634 -0.420038 -0.841505
v 0.784003 -0.470285 -0.505402
v 0.241580 0.284497 1.007176
v -0.728752 0.392242 0.592188
v -0.579199 0.432057 -0.418264
v 0.320987 0.427607 -0.788743
v 0.920485 0.552484 -0.202208
v 0.055447 0.884635 0.090942
v -0.161135 -0.845670 0.418559
v 0.389463 -0.726091 0.547456
v 0.440698 -0.847631 -0.258037
v -0.430642 -0.803468 0.159786
v -0.789884 -0.398902 -0.418407
v 0.177468 -0.593304 -0.798690
v 0.826575 0.002611 0.302982
v 1.041275 -0.001188 -0.256479
v -0.189542 0.065092 1.046679
v 0.642207 -0.066906 0.802998
v -0.919034 0.019617 0.316957
v -0.635094 -0.081358 0.819125
v -0.664845 0.010757 -0.747559
v -0.194467 -0.085108 -0.917709
v -0.294502 0.506194 0.785115
v -0.775749 0.465541 0.099404
v 0.727433 0.494728 -0.532312
v 0.169759 0.914379 0.568971
v -0.327178 0.803701 -0.320037
v 0.173160 0.873812 -0.542314
vn 0.0395 -0.8111 0.5836
vn -0.9225 0.1169 -0.3679
vn -0.5069 -0.7616 0.4037
vn -0.4275 -0.2688 -0.8631
vn -0.3281 -0.8576 -0.3962
vn -0.3887 -0.6789 0.6229
vn -0.5811 0.7814 0.2275
vn 0.5437 -0.1181 -0.8309
vn -0.6298 -0.3605 -0.6880
vn 0.9341 0.0570 0.3524
vn -0.4336 -0.0760 0.8979
vn 0.7623 -0.5754 0.2964
vn -0.3540 -0.0839 -0.9315
vn -0.2626 0.5422 -0.7982
vn -0.7427 0.5882 -0.3200
vn 0.3832 0.5406 -0.7489
vn -0.1588 0.9862 -0.0464
vn -0.6097 0.5613 -0.5596
vn -0.2237 0.4432 -0.8681
vn -0.4216 0.3274 -0.8456
vn 0.3154 0.9395 -0.1339
vn -0.1091 0.5593 0.8218
vn 0.7121 0.6101 0.3474
vn 0.7458 0.3771 0.5491
vn 0.8219 0.2304 -0.5210
vn 0.5148 0.7413 -0.4307
vn 0.9988 -0.0406 -0.0288
vn -0.9201 0.3650 0.1420
vn -0.4528 0.3109 0.8356
vn -0.5143 0.3436 0.7858
vn -0.1622 0.4745 0.8652
vn 0.7738 0.4188 0.4752
vn 0.0060 -0.2239 -0.9746
vn 0.3737 0.9260 0.0536
vn 0.7427 -0.6695 0.0095
vn 0.6049 -0.7808 0.1563
vn -0.8623 0.0698 0.5016
vn 0.4178 0.0942 -0.9036
vn 0.3470 -0.1148 -0.9308
vn 0.2285 -0.2811 0.9321
vn 0.6804 -0.4016 0.6130
vn -0.0687 -0.5678 0.8203
vn 0.9210 0.1664 0.3523
vn -0.9704 0.1356 -0.1999
vn -0.8309 0.4376 -0.3438
vn 0.4114 -0.7311 -0.5442
vn -0.5434 -0.7085 0.4503
vn -0.7296 -0.5622 0.3895
vn -0.2061 -0.9203 -0.3326
vn -0.8737 -0.1402 0.4658
vn -0.4498 -0.8386 -0.3073
vn 0.5588 -0.4772 0.6783
vn -0.2955 -0.9116 -0.2857
vn 0.6207 0.0738 -0.7806
vn -0.9720 0.1322 -0.1942
vn -0.4254 0.8706 0.2470
vn 0.5085 -0.8461 0.1600
vn -0.1911 0.9815 -0.0154
vn 0.1936 -0.4183 0.8874
vn -0.3198 0.9323 0.1692
usemtl None
s off
f 1//1 14//1 13//1
f 23//2 28//2 4//2
f 1//3 13//3 16//3
f 16//4 15//4 1//4
f 18//5 16//5 17//5
f 24//6 4//6 16//6
f 30//7 31//7 27//7
f 20//8 10//8 29//8
f 5//9 17//9 25//9
f 2//10 19//10 22//10
f 3//11 21//11 24//11
f 6//12 20//12 19//12
f 5//13 25//13 26//13
f 25//14 31//14 10//14
f 9//15 28//15 31//15
f 29//16 10//16 32//16
f 32//17 31//17 12//17
f 9//18 31//18 25//18
f 10//19 26//19 25//19
f 10//20 31//20 32//20
f 11//21 12//21 30//21
f 27//22 7//22 30//22
f 7//23 22//23 19//23
f 19//24 11//24 30//24
f 20//25 29//25 11//25
f 29//26 32//26 11//26
f 2//27 6//27 19//27
f 23//28 8//28 28//28
f 24//29 27//29 8//29
f 24//30 21//30 27//30
f 21//31 7//31 27//31
f 7//32 19//32 30//32
f 18//33 5//33 26//33
f 11//34 32//34 12//34
f 2//35 15//35 6//35
f 14//36 15//36 2//36
f 23//37 24//37 8//37
f 18//38 26//38 6//38
f 26//39 10//39 6//39
f 21//40 22//40 7//40
f 3//41 13//41 21//41
f 21//42 13//42 14//42
f 19//43 20//43 11//43
f 28//44 25//44 17//44
f 28//45 9//45 25//45
f 15//46 18//46 6//46
f 16//47 13//47 3//47
f 16//48 3//48 24//48
f 15//49 16//49 18//49
f 4//50 24//50 23//50
f 16//51 4//51 17//51
f 14//52 2//52 22//52
f 17//53 5//53 18//53
f 20//54 6//54 10//54
f 17//55 4//55 28//55
f 27//56 31//56 28//56
f 14//57 1//57 15//57
f 30//58 12//58 31//58
f 14//59 22//59 21//59
f 8//60 27//60 28//60
