# Blender v2.79 (sub 0) OBJ File: ''
# www.blender.org
mtllib a03.mtl
o Icosphere
v -0.098824 -1.007572 -0.003198
v 0.759474 -0.421133 0.386965
v -0.388015 -0.401266 0.934077
v -0.850610 -0.600384 0.140362
v -0.201182 -0.374459 -0.890160
v 0.720626 -0.583324 -0.506124
v 0.357650 0.216646 1.041273
v -0.693496 0.455974 0.606526
v -0.521897 0.351028 -0.394657
v 0.354693 0.447776 -0.857271
v 0.905248 0.586719 -0.241810
v 0.066821 0.808074 0.176621
v -0.141376 -0.791014 0.398440
v 0.389014 -0.781111 0.629309
v 0.422185 -0.826586 -0.282559
v -0.384844 -0.874946 0.194075
v -0.878947 -0.397166 -0.409813
v 0.188872 -0.626711 -0.890651
v 0.789315 -0.012632 0.315816
v 0.951560 0.030235 -0.249737
v 0.083506 -0.192503 0.759317
v 0.579874 -0.101247 0.738564
v -0.956246 -0.009305 0.332622
v -0.624573 -0.068978 0.769591
v -0.661225 0.011606 -0.839044
v -0.265987 -0.039301 -0.928030
v -0.271957 0.530843 0.809222
v -0.778336 0.414629 0.067235
v 0.701299 0.546372 -0.479557
v 0.169032 0.945985 0.555305
v -0.341950 0.892339 -0.370139
v 0.109436 0.904533 -0.447586
vn -0.1804 -0.8736 0.4519
vn -0.8463 0.0219 -0.5323
vn -0.0872 -0.8807 0.4656
vn -0.5091 0.1601 -0.8457
vn -0.3558 -0.8524 -0.3832
vn -0.4339 -0.6055 0.6672
vn -0.5724 0.7739 0.2712
vn 0.7294 0.0498 -0.6823
vn -0.4925 -0.4917 -0.7181
vn 0.8950 0.0123 0.4460
vn 0.0993 0.4973 0.8619
vn 0.8791 -0.4228 0.2201
vn -0.2359 -0.1540 -0.9595
vn -0.2390 0.5224 -0.8185
vn -0.8178 0.2943 -0.4946
vn 0.4062 0.7213 -0.5610
vn -0.0005 0.9883 0.1527
vn -0.9481 0.3125 0.0586
vn -0.1640 0.3433 -0.9248
vn -0.1495 0.6145 -0.7746
vn 0.0675 0.9315 -0.3575
vn -0.0346 0.5480 0.8358
vn 0.8696 0.1648 0.4654
vn 0.7609 0.3570 0.5419
vn 0.7510 0.0718 -0.6564
vn 0.4296 0.7542 -0.4965
vn 0.9965 -0.0779 -0.0292
vn -0.8913 0.4407 0.1064
vn -0.4537 0.2095 0.8662
vn 0.0027 -0.0675 0.9977
vn -0.4521 -0.2806 0.8467
vn 0.8241 0.4459 0.3494
vn -0.0840 -0.1279 -0.9882
vn 0.3284 0.9298 0.1661
vn 0.6739 -0.7316 0.1035
vn 0.7158 -0.6957 0.0607
vn -0.7879 0.0860 0.6098
vn 0.5274 0.3594 -0.7699
vn 0.2788 -0.2195 -0.9349
vn 0.1471 -0.6262 0.7656
vn 0.4960 -0.5774 0.6485
vn -0.3637 -0.3769 0.8518
vn 0.9569 0.0756 0.2803
vn -0.9384 0.2539 -0.2342
vn -0.5359 0.7436 -0.3999
vn 0.3678 -0.8323 -0.4147
vn -0.1596 -0.8317 0.5317
vn -0.8417 -0.4564 0.2885
vn -0.1046 -0.9560 -0.2741
vn -0.7760 -0.3162 0.5458
vn -0.4618 -0.8395 -0.2863
vn 0.7096 -0.3015 0.6368
vn -0.4232 -0.6531 -0.6280
vn 0.7197 0.0191 -0.6940
vn -0.9939 0.0765 0.0794
vn -0.5742 0.7726 0.2709
vn 0.3559 -0.9326 0.0595
vn 0.6717 0.6191 -0.4068
vn 0.0738 -0.1784 0.9812
vn -0.1503 0.9873 -0.0520
usemtl None
s off
f 1//1 14//1 13//1
f 23//2 28//2 4//2
f 1//3 13//3 16//3
f 16//4 15//4 1//4
f 18//5 16//5 17//5
f 24//6 4//6 16//6
f 30//7 31//7 27//7
f 20//8 10//8 29//8
f 5//9 17//9 25//9
f 2//10 19//10 22//10
f 3//11 21//11 24//11
f 6//12 20//12 19//12
f 5//13 25//13 26//13
f 25//14 31//14 10//14
f 9//15 28//15 31//15
f 29//16 10//16 32//16
f 32//17 31//17 12//17
f 9//18 31//18 25//18
f 10//19 26//19 25//19
f 10//20 31//20 32//20
f 11//21 12//21 30//21
f 27//22 7//22 30//22
f 7//23 22//23 19//23
f 19//24 11//24 30//24
f 20//25 29//25 11//25
f 29//26 32//26 11//26
f 2//27 6//27 19//27
f 23//28 8//28 28//28
f 24//29 27//29 8//29
f 24//30 21//30 27//30
f 21//31 7//31 27//31
f 7//32 19//32 30//32
f 18//33 5//33 26//33
f 11//34 32//34 12//34
f 2//35 15//35 6//35
f 14//36 15//36 2//36
f 23//37 24//37 8//37
f 18//38 26//38 6//38
f 26//39 10//39 6//39
f 21//40 22//40 7//40
f 3//41 13//41 21//41
f 21//42 13//42 14//42
f 19//43 20//43 11//43
f 28//44 25//44 17//44
f 28//45 9//45 25//45
f 15//46 18//46 6//46
f 16//47 13//47 3//47
f 16//48 3//48 24//48
f 15//49 16//49 18//49
f 4//50 24//50 23//50
f 16//51 4//51 17//51
f 14//52 2//52 22//52
f 17//53 5//53 18//53
f 20//54 6//54 10//54
f 17//55 4//55 28//55
f 27//56 31//56 28//56
f 14//57 1//57 15//57
f 30//58 12//58 31//58
f 14//59 22//59 21//59
f 8//60 27//60 28//60
