# Blender v2.79 (sub 0) OBJ File: ''
# www.blender.org
mtllib a04.mtl
o Icosphere
v 0.052528 -0.820398 0.262704
v 0.706705 -0.416285 0.363617
v -0.428616 -0.426813 0.751189
v -0.978359 -0.665482 0.134773
v -0.433114 -0.363022 -0.800826
v 0.657249 -0.696362 -0.506845
v 0.473721 0.148795 0.618086
v -0.658240 0.519707 0.620865
v -0.809993 0.371724 -0.371050
v 0.388399 0.467944 -0.925799
v 0.890011 0.620954 -0.281412
v 0.066669 1.180690 0.133749
v -0.121617 -0.736358 0.378322
v 0.388564 -0.697826 0.534060
v 0.403673 -0.805542 -0.307081
v -0.343389 -0.806392 -0.225802
v -0.968011 -0.395429 -0.401219
v 0.200276 -0.660118 -0.982613
v 0.752056 -0.027875 0.328650
v 0.861845 0.061658 -0.242995
v -0.006511 -0.154696 0.718834
v 0.517540 -0.135589 0.674129
v -0.993457 -0.038227 0.348288
v -0.614052 -0.056599 0.720058
v -0.657604 0.012456 -0.930529
v -0.060439 -0.082462 -0.887796
v -0.249412 0.555491 0.833328
v -0.780924 0.363717 0.035067
v 0.602728 0.598016 -0.554342
v 0.054773 0.977591 0.541639
v -0.356722 0.980978 -0.420241
v 0.045713 0.935255 -0.352858
vn -0.0866 -0.8633 0.4972
vn -0.8893 0.1281 -0.4391
vn -0.3026 -0.9277 0.2186
vn -0.0018 -0.9996 -0.0272
vn -0.4023 -0.8008 -0.4437
vn 0.2013 -0.7387 0.6432
vn -0.6706 0.6831 0.2893
vn 0.8452 0.1041 -0.5241
vn -0.4864 -0.5306 -0.6941
vn 0.8333 -0.0477 0.5508
vn 0.0169 0.0922 0.9956
vn 0.9440 -0.3015 0.1341
vn 0.0174 -0.3171 -0.9482
vn -0.2170 0.5069 -0.8342
vn -0.7977 0.5991 0.0689
vn 0.3243 0.8187 -0.4738
vn 0.1748 0.8761 -0.4494
vn -0.7107 0.4878 -0.5068
vn 0.0532 -0.1119 -0.9923
vn 0.1848 0.8128 -0.5524
vn 0.6416 0.6790 0.3568
vn 0.4198 0.2915 0.8596
vn 0.7684 0.2357 0.5950
vn 0.7262 0.3826 0.5712
vn 0.6898 -0.0841 -0.7191
vn 0.3463 0.8315 -0.4344
vn 0.9929 -0.1176 -0.0186
vn -0.8666 0.4966 0.0493
vn -0.4660 0.1153 0.8773
vn -0.0251 -0.1675 0.9856
vn 0.2476 -0.0711 0.9662
vn 0.7673 0.4316 0.4744
vn -0.2572 0.0424 -0.9654
vn 0.3463 0.8315 -0.4343
vn 0.5329 -0.8139 0.2316
vn 0.6898 -0.7165 0.1041
vn -0.6965 0.0695 0.7142
vn 0.6744 0.4057 -0.6169
vn 0.2575 -0.2740 -0.9266
vn 0.0758 0.2040 0.9760
vn 0.3940 -0.5212 0.7571
vn -0.2277 -0.4580 0.8593
vn 0.9824 -0.0369 0.1829
vn -0.8984 0.3633 -0.2469
vn -0.8860 -0.4604 0.0543
vn 0.1991 -0.9440 -0.2632
vn -0.4944 -0.8239 0.2770
vn -0.8933 -0.4397 0.0929
vn -0.0211 -0.9787 -0.2043
vn -0.6838 -0.2498 0.6855
vn -0.4156 -0.8090 -0.4156
vn 0.6519 -0.3207 0.6871
vn -0.4643 -0.5808 -0.6686
vn 0.8162 -0.0193 -0.5774
vn -0.9775 0.1952 0.0795
vn -0.6768 0.6775 0.2879
vn 0.2474 -0.9605 0.1274
vn -0.7001 0.6471 0.3018
vn 0.0915 -0.2604 0.9611
vn 0.0549 0.9620 -0.2677
usemtl None
s off
f 1//1 14//1 13//1
f 23//2 28//2 4//2
f 1//3 13//3 16//3
f 16//4 15//4 1//4
f 18//5 16//5 17//5
f 24//6 4//6 16//6
f 30//7 31//7 27//7
f 20//8 10//8 29//8
f 5//9 17//9 25//9
f 2//10 19//10 22//10
f 3//11 21//11 24//11
f 6//12 20//12 19//12
f 5//13 25//13 26//13
f 25//14 31//14 10//14
f 9//15 28//15 31//15
f 29//16 10//16 32//16
f 32//17 31//17 12//17
f 9//18 31//18 25//18
f 10//19 26//19 25//19
f 10//20 31//20 32//20
f 11//21 12//21 30//21
f 27//22 7//22 30//22
f 7//23 22//23 19//23
f 19//24 11//24 30//24
f 20//25 29//25 11//25
f 29//26 32//26 11//26
f 2//27 6//27 19//27
f 23//28 8//28 28//28
f 24//29 27//29 8//29
f 24//30 21//30 27//30
f 21//31 7//31 27//31
f 7//32 19//32 30//32
f 18//33 5//33 26//33
f 11//34 32//34 12//34
f 2//35 15//35 6//35
f 14//36 15//36 2//36
f 23//37 24//37 8//37
f 18//38 26//38 6//38
f 26//39 10//39 6//39
f 21//40 22//40 7//40
f 3//41 13//41 21//41
f 21//42 13//42 14//42
f 19//43 20//43 11//43
f 28//44 25//44 17//44
f 28//45 9//45 25//45
f 15//46 18//46 6//46
f 16//47 13//47 3//47
f 16//48 3//48 24//48
f 15//49 16//49 18//49
f 4//50 24//50 23//50
f 16//51 4//51 17//51
f 14//52 2//52 22//52
f 17//53 5//53 18//53
f 20//54 6//54 10//54
f 17//55 4//55 28//55
f 27//56 31//56 28//56
f 14//57 1//57 15//57
f 30//58 12//58 31//58
f 14//59 22//59 21//59
f 8//60 27//60 28//60
